<svg height="512" width="512" xmlns="http://www.w3.org/2000/svg" stroke-width="15" stroke="#fff"><path d="M511.23 281.257l-30-90A15 15 0 0 0 467 181h-97v-75c0-8.284-6.716-15-15-15H15c-8.284 0-15 6.716-15 15v270c0 8.284 6.716 15 15 15h27.58c6.192 17.459 22.865 30 42.42 30 11.517 0 22.032-4.354 30-11.495 7.968 7.142 18.483 11.495 30 11.495 19.555 0 36.228-12.541 42.42-30h197.16c6.192 17.459 22.865 30 42.42 30s36.228-12.541 42.42-30H497c8.284 0 15-6.716 15-15v-90c0-1.612-.26-3.214-.77-4.743zM476.188 271H432v-60h24.188zM30 121h310v150H30zm0 180h310v60H187.42c-6.192-17.459-22.865-30-42.42-30-11.517 0-22.032 4.354-30 11.495C107.032 335.354 96.517 331 85 331c-19.555 0-36.228 12.541-42.42 30H30zm55 90c-8.271 0-15-6.729-15-15s6.729-15 15-15 15 6.729 15 15-6.729 15-15 15zm60 0c-8.271 0-15-6.729-15-15s6.729-15 15-15 15 6.729 15 15-6.729 15-15 15zm282 0c-8.271 0-15-6.729-15-15s6.729-15 15-15 15 6.729 15 15-6.729 15-15 15zm42.42-30c-6.192-17.459-22.865-30-42.42-30s-36.228 12.541-42.42 30H370V211h32v75c0 8.284 6.716 15 15 15h65v60z"/><path d="M83 141c-8.284 0-15 6.716-15 15v80c0 8.284 6.716 15 15 15s15-6.716 15-15v-80c0-8.284-6.716-15-15-15zm68 0c-8.284 0-15 6.716-15 15v80c0 8.284 6.716 15 15 15s15-6.716 15-15v-80c0-8.284-6.716-15-15-15zm136 0c-8.284 0-15 6.716-15 15v80c0 8.284 6.716 15 15 15s15-6.716 15-15v-80c0-8.284-6.716-15-15-15zm-68 0c-8.284 0-15 6.716-15 15v80c0 8.284 6.716 15 15 15s15-6.716 15-15v-80c0-8.284-6.716-15-15-15z"/></svg>